<?xml version="1.0" encoding="UTF-8"?>
<svg version="1.1" xmlns="http://www.w3.org/2000/svg" width="600" height="228">
<path d="M0 0 C198 0 396 0 600 0 C600 75.24 600 150.48 600 228 C402 228 204 228 0 228 C0 152.76 0 77.52 0 0 Z " fill="#FEFEFE" transform="translate(0,0)"/>
<path d="M0 0 C4.21780188 -0.04592888 8.43473513 -0.08574749 12.65258789 -0.10986328 C14.08718812 -0.119917 15.52176789 -0.13356194 16.95629883 -0.15087891 C19.01909438 -0.17515549 21.08161885 -0.18648919 23.14453125 -0.1953125 C24.38565674 -0.20578613 25.62678223 -0.21625977 26.90551758 -0.22705078 C30 0 30 0 33 2 C33.49284522 5.80194885 33.69679381 8.04482065 31.39355469 11.20214844 C28.19987443 13.60099191 26.23134787 13.46019909 22.265625 13.390625 C20.97011719 13.37773438 19.67460938 13.36484375 18.33984375 13.3515625 C16.97655176 13.31814366 15.61327051 13.28428391 14.25 13.25 C12.87111936 13.22992707 11.49221088 13.21167767 10.11328125 13.1953125 C6.74188862 13.14816016 3.37085627 13.0764174 0 13 C0 8.71 0 4.42 0 0 Z " fill="#F9B350" transform="translate(79,44)"/>
<path d="M0 0 C0.66163651 0.00565979 1.32327301 0.01131958 2.00495911 0.01715088 C4.11472457 0.03951253 6.22278077 0.08970129 8.33203125 0.140625 C9.76364731 0.1606906 11.19529005 0.17894128 12.62695312 0.1953125 C16.13399791 0.23597389 19.63735585 0.31424368 23.14453125 0.390625 C23.14453125 4.680625 23.14453125 8.970625 23.14453125 13.390625 C19.08731849 13.45960784 15.03160534 13.51930417 10.97412109 13.55541992 C9.59481907 13.57047922 8.21556472 13.59093113 6.83642578 13.61694336 C4.85079722 13.65344915 2.86481507 13.66877353 0.87890625 13.68359375 C-0.31508789 13.6993042 -1.50908203 13.71501465 -2.73925781 13.73120117 C-6.12287448 13.36139976 -7.50933083 12.8226929 -9.85546875 10.390625 C-10.34158308 7.12671447 -10.25428649 5.17709607 -8.7565918 2.22363281 C-5.94754348 -0.48477027 -3.84121045 -0.06483056 0 0 Z " fill="#F5B759" transform="translate(50.85546875,43.609375)"/>
<path d="M0 0 C20.46 0 40.92 0 62 0 C62 0.33 62 0.66 62 1 C52.76 1 43.52 1 34 1 C34 5.29 34 9.58 34 14 C32.35 14 30.7 14 29 14 C29 9.71 29 5.42 29 1 C19.43 1 9.86 1 0 1 C0 0.67 0 0.34 0 0 Z " fill="#FBE7C5" transform="translate(45,43)"/>
<path d="M0 0 C4.21780188 -0.04592888 8.43473513 -0.08574749 12.65258789 -0.10986328 C14.08718812 -0.119917 15.52176789 -0.13356194 16.95629883 -0.15087891 C19.01909438 -0.17515549 21.08161885 -0.18648919 23.14453125 -0.1953125 C24.38565674 -0.20578613 25.62678223 -0.21625977 26.90551758 -0.22705078 C30 0 30 0 33 2 C33.1875 5.625 33.1875 5.625 33 9 C32.67 9 32.34 9 32 9 C31.67 7.35 31.34 5.7 31 4 C21.1776452 2.3049249 11.94396878 1.74931171 2 2 C2 4.97 2 7.94 2 11 C11.57 11 21.14 11 31 11 C29 13 29 13 26.11083984 13.22705078 C24.90637207 13.21657715 23.7019043 13.20610352 22.4609375 13.1953125 C20.50800781 13.18564453 20.50800781 13.18564453 18.515625 13.17578125 C17.13541405 13.15906929 15.75520571 13.14213939 14.375 13.125 C12.98698548 13.11497006 11.59896411 13.10584423 10.2109375 13.09765625 C6.80721808 13.07401931 3.40358772 13.03814731 0 13 C0 8.71 0 4.42 0 0 Z " fill="#E9BF74" transform="translate(79,44)"/>
<path d="M0 0 C15.84 0.495 15.84 0.495 32 1 C31.67 1.99 31.34 2.98 31 4 C26.90637894 3.8818344 22.81299233 3.75759216 18.71972656 3.62768555 C17.3268741 3.58434154 15.93396869 3.54266604 14.54101562 3.50268555 C12.54023349 3.44497068 10.53964141 3.38078131 8.5390625 3.31640625 C6.73236084 3.26141968 6.73236084 3.26141968 4.88916016 3.20532227 C2 3 2 3 0 2 C0 1.34 0 0.68 0 0 Z " fill="#FEF9DD" transform="translate(43,56)"/>
<path d="M0 0 C1.9480957 0.00483398 1.9480957 0.00483398 3.93554688 0.00976562 C5.30729233 0.01812094 6.67903712 0.02658588 8.05078125 0.03515625 C9.4342432 0.0401729 10.81770688 0.04473552 12.20117188 0.04882812 C15.5885852 0.06063096 18.97591158 0.07709606 22.36328125 0.09765625 C22.36328125 0.42765625 22.36328125 0.75765625 22.36328125 1.09765625 C21.11454224 1.1116748 21.11454224 1.1116748 19.84057617 1.12597656 C16.74825836 1.17001991 13.65693179 1.231644 10.56518555 1.30517578 C8.57038994 1.34724274 6.57520043 1.36903489 4.58007812 1.390625 C3.32646484 1.42285156 2.07285156 1.45507812 0.78125 1.48828125 C-0.37608643 1.50922852 -1.53342285 1.53017578 -2.72583008 1.55175781 C-5.71559105 1.83364023 -5.71559105 1.83364023 -7.5222168 3.94042969 C-8.99924304 6.79935716 -8.9127394 8.92341883 -8.63671875 12.09765625 C-8.30671875 12.75765625 -7.97671875 13.41765625 -7.63671875 14.09765625 C-8.62671875 14.09765625 -9.61671875 14.09765625 -10.63671875 14.09765625 C-10.66396025 12.68109832 -10.68322342 11.2643858 -10.69921875 9.84765625 C-10.71082031 9.05875 -10.72242188 8.26984375 -10.734375 7.45703125 C-10.63825636 5.13480482 -10.4768457 3.26758415 -9.63671875 1.09765625 C-6.21920222 -0.04151593 -3.60183938 -0.01572856 0 0 Z " fill="#FEF8E3" transform="translate(50.63671875,41.90234375)"/>
<path d="M0 0 C0.33 0 0.66 0 1 0 C1 2.64 1 5.28 1 8 C-2.64216695 10.29822325 -5.70825007 10.23128602 -9.953125 10.1953125 C-10.61334656 10.1924826 -11.27356812 10.18965271 -11.95379639 10.18673706 C-14.05271897 10.17558415 -16.15120742 10.15048946 -18.25 10.125 C-19.67707715 10.11496384 -21.10416102 10.1058391 -22.53125 10.09765625 C-26.02097328 10.07566111 -29.51044423 10.04116536 -33 10 C-33 9.67 -33 9.34 -33 9 C-17.655 8.505 -17.655 8.505 -2 8 C-1.34 5.36 -0.68 2.72 0 0 Z " fill="#FEF4CD" transform="translate(112,48)"/>
<path d="M0 0 C1.916588 -0.02712153 3.8332873 -0.04645097 5.75 -0.0625 C7.35101563 -0.07990234 7.35101563 -0.07990234 8.984375 -0.09765625 C11.53368501 -0.01510087 13.57933591 0.25382442 16 1 C16 1.99 16 2.98 16 4 C15.29488281 3.68289062 14.58976562 3.36578125 13.86328125 3.0390625 C10.87494121 1.95461714 8.34930342 1.6035641 5.1875 1.375 C4.21167969 1.30023438 3.23585938 1.22546875 2.23046875 1.1484375 C1.12638672 1.07496094 1.12638672 1.07496094 0 1 C0 0.67 0 0.34 0 0 Z " fill="#FFF6DC" transform="translate(96,42)"/>
</svg>
